<svg width="818" height="532" viewBox="0 0 818 532" fill="none" xmlns="http://www.w3.org/2000/svg">
<path d="M1.90382 10.4837C223.871 11.5356 446.08 11.8302 816.584 10.7903M1.68351 10.378C221.634 11.7563 441.17 11.9835 816.149 10.5293M815.812 11.1209C817.664 149.322 817.634 286.028 817.028 531.054M816.116 10.3361C817.958 131.169 817.948 252.516 816.167 531.206M816.254 530.135C572.488 528.495 328.365 527.969 2.14858 531.193M816.34 530.764C587.544 531.681 358.372 531.344 1.98004 530.806M1.7453 530.122C1.07658 350.568 -0.127823 168.668 0.897681 10.5709M1.97062 531.106C0.700754 414.147 0.0620881 296.999 1.89615 10.3487" stroke="black"/>
<path d="M411.262 14.1804C414.189 11.9196 417.678 6.95893 424.552 1.09245M409.5 15.6972C414.866 9.04484 419.684 4.51255 423.476 0.336121M416.281 21.3361C422.854 15.177 426.831 9.43199 430.5 4.29175M417.559 19.6093C421.11 15.5397 423.109 13.6633 430.151 5.94M411.159 1.44081V1.44081Z" stroke="black"/>
</svg>
