<svg width="515" height="516" viewBox="0 0 515 516" fill="none" xmlns="http://www.w3.org/2000/svg">
<path fill-rule="evenodd" clip-rule="evenodd" d="M0.519939 6.31073C163.37 3.33162 326.195 3.04378 512.836 6.64092L0.519939 6.31073Z" fill="white"/>
<path d="M0.499985 6.66411C135.653 8.49453 271.19 8.75169 512.65 4.89178M0.519939 6.31073C163.37 3.33162 326.195 3.04378 512.836 6.64092" stroke="black"/>
<path d="M1.49998 6.0097H509.5V513.01H71.5L1.49998 446.01V6.0097Z" fill="white"/>
<path fill-rule="evenodd" clip-rule="evenodd" d="M68.5 513.966C203.703 513.232 337.456 514.208 514.255 514.578L68.5 513.966Z" fill="white"/>
<path d="M70.3219 514.793C166.039 516.003 260.25 514.499 513.27 513.01M68.5 513.966C203.703 513.232 337.456 514.208 514.255 514.578" stroke="black"/>
<path fill-rule="evenodd" clip-rule="evenodd" d="M510.531 0.998813C511.895 199.869 511.572 399.657 511.036 513.9L510.531 0.998813Z" fill="white"/>
<path d="M510.255 0.00970459C512.967 148.332 511.586 297.763 509.5 514.477M510.531 0.998813C511.895 199.869 511.572 399.657 511.036 513.9" stroke="black"/>
<path fill-rule="evenodd" clip-rule="evenodd" d="M0.971552 0.00970459C2.80898 94.6176 2.72055 190.302 0.499985 444.808L0.971552 0.00970459Z" fill="white"/>
<path d="M0.840844 0.2207C0.109039 136.169 1.83548 269.541 1.28234 445.695M0.971552 0.00970459C2.80898 94.6176 2.72055 190.302 0.499985 444.808" stroke="black"/>
<path fill-rule="evenodd" clip-rule="evenodd" d="M0.669731 446.127C20.343 464.469 39.1542 482.239 71.5452 514.966L0.669731 446.127Z" fill="white"/>
<path d="M0.499985 444.01C25.4693 473.066 50.4779 493.015 67.8141 512.542M0.669731 446.127C20.343 464.469 39.1542 482.239 71.5452 514.966" stroke="black"/>
<path fill-rule="evenodd" clip-rule="evenodd" d="M1.86204 444.01C26.4087 444.967 49.7566 444.801 70.9525 445.736L1.86204 444.01Z" fill="white"/>
<path d="M0.499985 446.681C18.0781 442.446 39.6794 446.151 72.327 445.8M1.86204 444.01C26.4087 444.967 49.7566 444.801 70.9525 445.736" stroke="black"/>
<path fill-rule="evenodd" clip-rule="evenodd" d="M68.5 440.01C68.7948 459.334 68.2881 479.624 68.7339 513.271L68.5 440.01Z" fill="white"/>
<path d="M71.9633 441.384C70.6167 459.376 67.0124 476.218 69.838 512.597M68.5 440.01C68.7948 459.334 68.2881 479.624 68.7339 513.271" stroke="black"/>
</svg>
