<svg width="514" height="514" viewBox="0 0 514 514" fill="none" xmlns="http://www.w3.org/2000/svg">
<rect x="0.5" y="2.5" width="513" height="510" fill="white"/>
<path d="M2.57154 1.8926C165.754 1.90016 329.119 2.88126 512.321 1.01008M1.98257 1.41115C111.956 0.40449 221.419 -0.104832 512.941 1.70244M513.197 1.91746C511.87 164.654 511.884 326.251 513.5 511.688M512.794 1.58623C511.783 105.142 512.068 209.015 513.142 512.341M512.571 512.375C330.653 514.261 147.179 513.418 2.8493 512.434M513.115 512.441C339.662 512.487 166.897 512.252 1.77379 511.875M1.89959 512.012C0.296024 319.865 -0.117999 128.445 1.66015 2.09345M1.6978 511.837C2.99316 354.272 2.8998 196.321 1.70401 1.47299" stroke="black"/>
<path d="M2.57154 1.8926C165.754 1.90016 329.119 2.88126 512.321 1.01008M1.98257 1.41115C111.956 0.40449 221.419 -0.104832 512.941 1.70244M513.197 1.91746C511.87 164.654 511.884 326.251 513.5 511.688M512.794 1.58623C511.783 105.142 512.068 209.015 513.142 512.341M512.571 512.375C330.653 514.261 147.179 513.418 2.8493 512.434M513.115 512.441C339.662 512.487 166.897 512.252 1.77379 511.875M1.89959 512.012C0.296024 319.865 -0.117999 128.445 1.66015 2.09345M1.6978 511.837C2.99316 354.272 2.8998 196.321 1.70401 1.47299" stroke="black"/>
</svg>
