<svg width="537" height="532" viewBox="0 0 537 532" fill="none" xmlns="http://www.w3.org/2000/svg">
<rect x="4.5" y="20.5" width="509" height="510" fill="white"/>
<rect x="22.5" y="0.5" width="513" height="513" fill="white"/>
<path d="M25.3198 0.5C150.672 1.74334 275.336 1.83237 535.024 0.558182M25.2936 0.865154C219.451 1.41526 413.44 0.896837 535.427 1.0185M534.916 0.91112C536.087 195.882 535.513 391.109 535.438 512.79M535.553 0.775389C536.832 153.851 536.836 306.105 535.438 512.758M534.766 513.345C399.703 510.373 262.715 510.74 25.2913 512.577M535.264 513.5C351.629 513.393 169.122 513.493 25.1232 512.769M24.751 512.362C25.357 323.816 25.7628 133.976 25.1412 0.798326M24.6734 513.163C22.9312 358.623 23.2455 204.531 24.8501 0.804437" stroke="black"/>
<path d="M28.2357 18.7739C21.4746 18.7256 12.6692 21.4083 0.574412 18.5M26.9912 20.706C19.1631 20.8448 11.6462 19.0064 2.47722 19.7804M2.20234 19.6625C-0.0498094 179.032 -0.217693 337.26 2.60857 531.032M2.38911 19.8648C4.3822 143.559 4.05374 267.034 2.58195 531.28M1.93552 531.381C176.432 529.923 348.985 529.777 511.997 530.816M2.26569 530.802C135.736 531.215 269.443 531.146 512.652 531.022M513.355 530.324C513.801 521.842 510.661 516.212 511.31 508.532M513.5 531.5C512.734 522.897 512.306 513.621 513.351 509.063" stroke="black"/>
</svg>
